<?xml version="1.0" encoding="UTF-8"?>
<svg version="1.1" xmlns="http://www.w3.org/2000/svg" width="2000" height="1123">
<path d="M0 0 C2.45276881 3.67915322 3.33689198 7.4170223 4.44262695 11.63964844 C4.67872681 12.52307419 4.91482666 13.40649994 5.15808105 14.31669617 C5.67071359 16.2377808 6.18075702 18.15955776 6.68853188 20.08193207 C7.49566514 23.13732662 8.30959301 26.19083887 9.12528992 29.24395752 C10.86058884 35.74432157 12.58688021 42.24706099 14.3125 48.75 C16.30305242 56.24823062 18.29737396 63.74543182 20.29894066 71.24073029 C21.09426881 74.22552308 21.88388647 77.21178578 22.673172 80.19818115 C28.04286927 100.39924193 33.60442139 119.45108263 47 136 C47.72703125 136.90363281 48.4540625 137.80726563 49.203125 138.73828125 C62.5744394 154.38980323 79.82345788 163.57497744 99.390625 169.14453125 C100.41061081 169.4382814 101.43059662 169.73203156 102.48149109 170.03468323 C116.03736929 173.90921188 129.65401726 177.56677277 143.27124023 181.21850586 C147.11200455 182.24859312 150.95115335 183.28457535 154.78995228 184.3219595 C157.77716018 185.12837824 160.76528702 185.93134712 163.75369835 186.73329353 C165.17220186 187.11448413 166.59039047 187.4968486 168.00824928 187.88043022 C169.96783209 188.41011645 171.92882998 188.93455922 173.88989258 189.45874023 C175.00108963 189.75739487 176.11228668 190.0560495 177.25715637 190.36375427 C180.0177892 191.11298299 180.0177892 191.11298299 183 191 C183.31638428 190.32646484 183.63276855 189.65292969 183.95874023 188.95898438 C196.21573633 162.9419639 209.69702979 138.35129072 228 116 C228.43473633 115.46375 228.86947266 114.9275 229.31738281 114.375 C236.58240609 105.47779219 244.53186743 97.26300829 252.625 89.125 C253.10601166 88.63872131 253.58702332 88.15244263 254.08261108 87.65142822 C260.70528308 80.97271682 267.59782613 74.80824001 275 69 C275.79196777 68.37432129 276.58393555 67.74864258 277.39990234 67.10400391 C332.68999929 23.86955455 401.09689848 -0.3025794 471.375 -0.1875 C472.49266251 -0.18609512 472.49266251 -0.18609512 473.63290405 -0.18466187 C535.39529763 -0.0174136 596.85678943 18.03347404 648 53 C648.55526367 53.37801758 649.11052734 53.75603516 649.68261719 54.14550781 C664.41636115 64.2335522 678.15724623 75.60278843 691 88 C691.9269165 88.89404541 691.9269165 88.89404541 692.87255859 89.80615234 C700.79261532 97.48842903 708.19734458 105.29642681 715 114 C715.91529124 115.11678314 716.83343228 116.2312347 717.75390625 117.34375 C723.94758774 124.87298244 729.61366524 132.64273541 735.06445312 140.72485352 C745.06253167 155.54727373 755.47843702 170.31814396 767 184 C776.71415615 171.20280493 786.0992206 158.20847761 795.14282227 144.9284668 C813.68516258 117.72703034 834.87183024 91.30553108 861 71 C862.00675781 70.17628906 863.01351563 69.35257812 864.05078125 68.50390625 C879.48433355 55.93278658 896.29918508 45.08699396 914 36 C915.3914624 35.28481201 915.3914624 35.28481201 916.81103516 34.55517578 C952.9649251 16.17414371 992.49489217 4.29566529 1033 1 C1034.26972656 0.88914062 1035.53945312 0.77828125 1036.84765625 0.6640625 C1118.30406428 -5.46795601 1201.09075734 20.81723878 1263.25 74 C1265.52037907 75.97781971 1267.76465512 77.98272204 1270 80 C1270.60263672 80.54092285 1271.20527344 81.0818457 1271.82617188 81.63916016 C1285.8756338 94.3107222 1298.67398285 107.83749944 1310 123 C1310.50885742 123.67369629 1311.01771484 124.34739258 1311.54199219 125.04150391 C1328.69898637 147.83579618 1342.39229275 172.5399928 1353 199 C1360.49806308 199.672383 1367.98252455 200.11442838 1375.50390625 200.39453125 C1452.7151107 203.28634841 1531.7385805 209.17987769 1606 232 C1606.87897949 232.26603027 1607.75795898 232.53206055 1608.66357422 232.80615234 C1636.43831162 241.29993996 1664.03631815 252.93984119 1687 271 C1687.836521 271.65718018 1687.836521 271.65718018 1688.68994141 272.32763672 C1712.02095518 290.88685335 1727.97307151 315.20373435 1732 345 C1732.2787947 348.9011344 1732.33477472 352.7773324 1732.3125 356.6875 C1732.30686035 357.73550781 1732.3012207 358.78351563 1732.29541016 359.86328125 C1731.682494 399.38120209 1707.41021521 432.04781695 1680.23925781 458.72900391 C1651.68386378 486.17728186 1617.60531403 507.80568546 1583.3125 527.3125 C1582.3136377 527.88234619 1581.31477539 528.45219238 1580.28564453 529.03930664 C1578.90094971 529.81842407 1578.90094971 529.81842407 1577.48828125 530.61328125 C1576.66884033 531.07516846 1575.84939941 531.53705566 1575.00512695 532.01293945 C1573 533 1573 533 1571 533 C1571.41024414 534.10545166 1571.82048828 535.21090332 1572.24316406 536.34985352 C1582.08765525 562.88774654 1591.83124294 589.46092158 1601.48535156 616.06860352 C1602.10414688 617.77369331 1602.10414688 617.77369331 1602.73544312 619.51322937 C1603.50578262 621.63636285 1604.27569185 623.75965251 1605.04507446 625.88313293 C1605.39097626 626.83677231 1605.73687805 627.79041168 1606.09326172 628.77294922 C1606.41631287 629.66544373 1606.73936401 630.55793823 1607.07220459 631.47747803 C1607.93891813 633.83392851 1608.84366978 636.1725189 1609.75439453 638.51220703 C1611 642 1611 642 1611 645 C1575.36 645 1539.72 645 1503 645 C1500.36231636 637.96617697 1498.07726726 630.92983691 1495.9284668 623.74389648 C1495.30827885 621.67340776 1494.68072231 619.60524389 1494.05273438 617.53710938 C1493.65580446 616.21627964 1493.25930439 614.89532064 1492.86328125 613.57421875 C1492.50532471 612.38401123 1492.14736816 611.19380371 1491.77856445 609.9675293 C1491 607 1491 607 1491 604 C1481.27097042 603.96826534 1471.54289559 603.97503596 1461.81395912 604.02846622 C1457.29436204 604.05213088 1452.77549521 604.06345067 1448.25585938 604.04467773 C1443.87868946 604.02698216 1439.50281856 604.04416727 1435.1258049 604.08367729 C1433.47163495 604.09283789 1431.81734905 604.09027107 1430.16322708 604.07469368 C1418.81655911 603.97838561 1409.97970432 605.90886738 1399.57650757 610.50047302 C1396 612 1396 612 1393 612 C1392.74476562 613.22589844 1392.48953125 614.45179688 1392.2265625 615.71484375 C1390.88651993 621.74503534 1389.13064832 627.6425395 1387.375 633.5625 C1387.05015625 634.66658203 1386.7253125 635.77066406 1386.390625 636.90820312 C1385.59639176 639.60626018 1384.79946328 642.30348897 1384 645 C1383.07057083 644.97033646 1382.14114166 644.94067291 1381.18354797 644.91011047 C1334.20867732 643.47918481 1293.05556847 644.36648113 1248.72200012 661.09117126 C1236.32104922 665.74738211 1223.68329913 669.32423326 1210.9269104 672.85665894 C1207.3801898 673.8389432 1203.83728667 674.83377007 1200.2956543 675.83422852 C1199.20102371 676.14332153 1198.10639313 676.45241455 1196.97859192 676.77087402 C1194.86860065 677.36770199 1192.75888083 677.96549062 1190.64945984 678.56433105 C1186.07205972 679.86186107 1181.49338024 681.14078147 1176.89111328 682.34741211 C1176.11370789 682.55814362 1175.33630249 682.76887512 1174.53533936 682.98599243 C1172.51943282 683.53230394 1170.49892699 684.06156981 1168.47802734 684.58911133 C1161.81994041 687.29001575 1157.53038051 692.57383167 1153 698 C1148.20463155 703.6348663 1143.17992505 708.96794228 1137.94140625 714.19140625 C1137.1934227 714.94034653 1136.44543915 715.6892868 1135.67478943 716.46092224 C1134.10367536 718.03271225 1132.53131608 719.60325849 1130.95776367 721.17260742 C1128.56900154 723.55601304 1126.18562554 725.94471068 1123.80273438 728.33398438 C1122.2659455 729.87011237 1120.7288464 731.40593009 1119.19140625 732.94140625 C1118.48907364 733.64576309 1117.78674103 734.35011993 1117.06312561 735.07582092 C1113.08433544 739.0361 1109.00915287 742.82137639 1104.74583435 746.47434998 C1102.19942675 748.69960509 1099.86282401 751.08024047 1097.5 753.5 C1093.91078381 757.13773571 1090.24670527 760.60869984 1086.359375 763.92578125 C1083.0031804 766.87634306 1079.75817805 769.94200746 1076.5 773 C1071.41301972 777.76544998 1066.30415908 782.47586431 1061 787 C1059.9789719 787.87477272 1058.95815929 788.74979699 1057.9375 789.625 C1056.16954381 791.14078689 1054.40117032 792.65607027 1052.63134766 794.16967773 C1048.81444518 797.43574443 1045.01559894 800.72157195 1041.22729492 804.02075195 C1035.55355123 808.95950603 1029.84258565 813.83187715 1023.99609375 818.56640625 C1021.66598888 820.45904684 1019.34725118 822.36288764 1017.03515625 824.27734375 C1008.73422622 831.14958781 1000.3787829 837.93233835 991.86914062 844.54443359 C989.84053523 846.1241809 987.81852574 847.712145 985.796875 849.30078125 C976.60001648 856.51219614 967.27993786 863.52829122 957.8515625 870.43359375 C952.87206164 874.08408578 947.93377715 877.78805233 943 881.5 C933.38066164 888.73153287 923.69835683 895.87496181 914 903 C904.9747509 909.63321194 895.95117479 916.26699406 887 923 C878.8501105 929.13028521 870.6397739 935.17710259 862.42333984 941.21777344 C858.44677489 944.1423074 854.47349592 947.07129832 850.5 950 C845.71651327 953.52571284 840.93228049 957.05038925 836.14453125 960.5703125 C828.73980537 966.01636895 821.34575634 971.47457766 814 977 C807.46739884 981.91377316 800.90873776 986.7911489 794.30810547 991.61328125 C790.07464714 994.70971422 785.88618891 997.8498131 781.74609375 1001.0703125 C780.88862549 1001.72789551 780.03115723 1002.38547852 779.14770508 1003.06298828 C777.49686113 1004.33055781 775.85680461 1005.61233306 774.22924805 1006.90966797 C768.76355079 1011.07158289 768.76355079 1011.07158289 765.5 1010.765625 C764.675 1010.18296875 763.85 1009.6003125 763 1009 C762.38817871 1008.57912109 761.77635742 1008.15824219 761.14599609 1007.72460938 C758.85108322 1006.1133662 756.61314425 1004.43915686 754.375 1002.75 C752.66809775 1001.47638959 750.96106275 1000.20295709 749.25390625 998.9296875 C748.38266113 998.27709961 747.51141602 997.62451172 746.61376953 996.95214844 C742.53078309 993.90268462 738.42017919 990.89106324 734.3125 987.875 C727.86525672 983.1299341 721.44861951 978.34621793 715.05126953 973.53417969 C707.5479322 967.89690914 699.98469459 962.34128721 692.42333984 956.78222656 C687.65399074 953.27464562 682.88909438 949.7610183 678.12353516 946.24829102 C674.17929 943.34134427 670.23372455 940.43622871 666.28515625 937.53515625 C657.31440641 930.94076398 648.38265197 924.29782277 639.48291016 917.60791016 C631.47993602 911.5975069 623.42450924 905.65982078 615.35888672 899.73388672 C610.61124289 896.24415722 605.86891704 892.74719818 601.12695312 889.24975586 C597.16153771 886.32587394 593.19231953 883.40745935 589.21484375 880.5 C580.5593529 874.16412768 572.00215776 867.72794936 563.56054688 861.109375 C558.73815367 857.332751 553.86006868 853.64470508 548.9375 850 C542.53440442 845.2452103 536.35851717 840.25407502 530.22998047 835.15161133 C525.73577718 831.41266227 521.18411753 827.76741154 516.5625 824.1875 C511.66229995 820.38604903 506.99938821 816.41942492 502.4765625 812.16796875 C501.65929687 811.45253906 500.84203125 810.73710938 500 810 C499.44257111 809.4969635 498.88514221 808.993927 498.31082153 808.47564697 C494.08161716 804.94007202 491.27083049 803.31048015 485.72698975 803.72947693 C484.95598938 803.8200386 484.18498901 803.91060028 483.390625 804.00390625 C481.61006787 804.15170925 479.82946589 804.29897251 478.04882812 804.44580078 C477.08178955 804.53710266 476.11475098 804.62840454 475.1184082 804.72247314 C469.33231941 805.23741376 463.53209711 805.54800657 457.734375 805.90234375 C455.13103291 806.07011562 452.52776267 806.23900571 449.92456055 806.40893555 C419.96386 808.35504807 390.00984124 810.01231021 360 811 C358.70669769 811.0438382 358.70669769 811.0438382 357.38726807 811.08856201 C266.51808444 814.15705159 174.58376415 812.79191708 -47 768 C-48.22976562 767.49629883 -48.22976562 767.49629883 -49.484375 766.98242188 C-85.10451434 752.22470691 -118.08320396 729.24968335 -134.12744141 693.13525391 C-144.6043755 667.49695911 -143.81649296 638.63400109 -133.40625 613.1796875 C-121.47380434 586.19910203 -102.43681233 563.04270855 -80 544 C-79.06671875 543.17886719 -78.1334375 542.35773437 -77.171875 541.51171875 C-55.81244744 522.85349949 -31.51519943 506.82275145 -7.00219727 492.61474609 C-6.24865967 492.17598145 -5.49512207 491.7372168 -4.71875 491.28515625 C-4.06841797 490.91269775 -3.41808594 490.54023926 -2.74804688 490.15649414 C-0.04099203 488.36552783 1.7495244 487.15189573 2.46069336 483.88134766 C2.50331299 483.06714355 2.54593262 482.25293945 2.58984375 481.4140625 C2.64946289 480.49391357 2.70908203 479.57376465 2.77050781 478.62573242 C2.82561523 477.63549072 2.88072266 476.64524902 2.9375 475.625 C5.51465726 440.11657021 16.88274401 407.73457718 42 382 C42.87205078 381.03513672 42.87205078 381.03513672 43.76171875 380.05078125 C67.71080025 354.1712952 108.66601683 342.33520871 142.81884766 340.87988281 C148.21766816 340.76479351 153.60311943 340.83173698 159 341 C158.9278125 339.8140625 158.855625 338.628125 158.78125 337.40625 C156.06342741 291.03430715 162.74792605 246.82637225 178 203 C162.95369764 206.72670923 147.96811965 210.6664514 132.99145508 214.66259766 C129.95498252 215.47223675 126.91720388 216.2766754 123.87817383 217.07666016 C120.14863445 218.0584775 116.4217065 219.04969725 112.69633675 220.04721451 C111.30009168 220.41948656 109.90301886 220.7886716 108.50503349 221.1543541 C79.36607462 228.78699612 54.15987801 242.48982371 38.56640625 269.0703125 C37.76532685 270.50069611 36.97219885 271.93556497 36.1875 273.375 C35.8383252 274.00954102 35.48915039 274.64408203 35.12939453 275.29785156 C28.44511725 288.19464978 25.27194606 302.9613413 21.5859375 316.92578125 C21.08505924 318.80864855 20.58371748 320.69139261 20.0819397 322.57402039 C18.77381102 327.48609077 17.47098074 332.39954922 16.1696167 337.31341553 C14.08191117 345.19294442 11.98616477 353.0703376 9.89012527 360.94765282 C9.16448757 363.67789224 8.44122782 366.40875261 7.71835327 369.13972473 C5.59835157 377.13283842 3.45178395 385.10054111 1 393 C0.34 392.67 -0.32 392.34 -1 392 C-1.90673199 389.21504605 -2.69277948 386.46660881 -3.42675781 383.63500977 C-3.66125137 382.75669495 -3.89574493 381.87838013 -4.13734436 380.97344971 C-4.64782593 379.05699837 -5.15452941 377.13953772 -5.65796661 375.22122383 C-6.45906138 372.16878668 -7.26975318 369.1190435 -8.08294678 366.06980896 C-9.52089893 360.67139246 -10.9501444 355.27071445 -12.37664795 349.8692627 C-14.64397548 341.28450686 -16.91867777 332.70174475 -19.20406342 324.12177849 C-19.99427067 321.14680115 -20.77734385 318.17001235 -21.55987549 315.19300842 C-27.17571176 292.96971576 -27.17571176 292.96971576 -36.3125 272.0625 C-36.69148437 271.36705078 -37.07046875 270.67160156 -37.4609375 269.95507812 C-40.96740164 263.71172037 -45.13480198 258.25645521 -50 253 C-50.69609375 252.22398437 -51.3921875 251.44796875 -52.109375 250.6484375 C-69.85068929 231.80638473 -94.00012305 224.68177304 -118.23828125 218.3125 C-119.85535785 217.88366405 -121.4723139 217.45437328 -123.0891571 217.0246582 C-127.30766585 215.90461908 -131.52759465 214.79003344 -135.7479248 213.67687988 C-141.66777014 212.11442844 -147.58565745 210.54457508 -153.50370789 208.9753418 C-156.63876624 208.14405173 -159.77436716 207.31486383 -162.91047668 206.48754883 C-166.52507337 205.53311577 -170.13748533 204.5707963 -173.74838638 203.60247803 C-175.3255536 203.18046575 -176.90334434 202.76078007 -178.48159409 202.34283447 C-180.98202903 201.67933012 -183.47984541 201.00667493 -185.97729492 200.33203125 C-186.75101346 200.12841476 -187.524732 199.92479828 -188.32189655 199.7150116 C-193.77183644 198.22816356 -193.77183644 198.22816356 -196 196 C-181.77600702 191.71140529 -167.47798417 187.7478214 -153.12109375 183.93359375 C-151.43013318 183.48349469 -149.73918479 183.03334988 -148.04824829 182.5831604 C-141.07996667 180.72923937 -134.11105206 178.87781257 -127.13842773 177.0402832 C-122.80971241 175.89913578 -118.48355634 174.74868661 -114.15883064 173.59251595 C-112.53935801 173.16140308 -110.91899754 172.73360829 -109.29766655 172.30953789 C-78.4814012 164.24500064 -53.49205646 150.16276927 -37 122 C-36.49597656 121.154375 -35.99195313 120.30875 -35.47265625 119.4375 C-32.13223772 113.3414577 -29.95228988 107.10228141 -27.953125 100.46875 C-27.65722473 99.4908551 -27.36132446 98.51296021 -27.05645752 97.50543213 C-22.49724415 82.20059802 -18.50254132 66.73254066 -14.42297363 51.29473877 C-13.29523358 47.03037581 -12.16314297 42.76716843 -11.03125 38.50390625 C-9.75589429 33.70008025 -8.48083514 28.89618064 -7.20965576 24.09124756 C-6.47241538 21.3046146 -5.73354555 18.51842584 -4.99255371 15.73278809 C-4.35677353 13.34175105 -3.72378205 10.94996969 -3.09436035 8.55725098 C-2.82764526 7.55512573 -2.56093018 6.55300049 -2.28613281 5.52050781 C-2.05919739 4.6616095 -1.83226196 3.80271118 -1.59844971 2.91778564 C-1 1 -1 1 0 0 Z M1374 294 C1373.98541748 295.1967334 1373.97083496 296.3934668 1373.95581055 297.62646484 C1373.2162243 353.91991914 1365.67568331 407.54711794 1339.01254272 458.07043457 C1338.07917459 459.8491199 1337.16350262 461.63706153 1336.24951172 463.42578125 C1331.1915953 473.18605356 1325.41094443 482.27944614 1319.25 491.375 C1318.26404543 492.84098592 1317.27845284 494.30721535 1316.29321289 495.77368164 C1310.11692168 504.94917848 1303.88632744 514.08443535 1297.40820312 523.05029297 C1295.81261083 525.25944694 1294.22664872 527.47537368 1292.640625 529.69140625 C1282.38138897 543.99220329 1282.38138897 543.99220329 1277.07421875 550.46875 C1275.80856567 551.9611353 1275.80856567 551.9611353 1276 554 C1283.57107232 552.48077711 1290.92510956 550.36368157 1298.27661133 548.01611328 C1299.63899292 547.58709133 1301.00534363 547.17048443 1302.37524414 546.76611328 C1304.38162064 546.17264093 1306.37190634 545.54021907 1308.36328125 544.8984375 C1309.54188721 544.53411621 1310.72049316 544.16979492 1311.93481445 543.79443359 C1316.20947931 541.29194162 1317.25939766 538.51567626 1319 534 C1319.49629158 532.73089783 1319.49629158 532.73089783 1320.00260925 531.43615723 C1321.12073671 528.48145212 1322.18781351 525.51180937 1323.24609375 522.53515625 C1323.64926819 521.41459335 1324.05244263 520.29403046 1324.46783447 519.13951111 C1325.56578981 516.08651986 1326.65962614 513.03208867 1327.75204086 509.97711182 C1329.63021639 504.73102658 1331.52143905 499.48961585 1333.41085243 494.24757004 C1333.89928448 492.89230837 1334.38754277 491.53698407 1334.87563133 490.18159866 C1340.0697192 475.75934896 1345.36994285 461.37718169 1350.6875 447 C1358.21320411 426.63888882 1365.63765335 406.24367018 1372.96557617 385.81054688 C1373.31272675 384.84259689 1373.65987732 383.87464691 1374.01754761 382.87736511 C1374.64075236 381.13874857 1375.2634283 379.39994226 1375.88528442 377.6608429 C1379.55061944 367.42597563 1383.28462545 357.21728001 1387 347 C1425.28 346.67 1463.56 346.34 1503 346 C1503.33 347.65 1503.66 349.3 1504 351 C1504.6501234 353.0052467 1505.33732553 354.99864967 1506.05029297 356.98242188 C1506.47519012 358.16976929 1506.90008728 359.3571167 1507.33786011 360.58044434 C1507.805824 361.87659867 1508.27393754 363.17269898 1508.7421875 364.46875 C1509.23030658 365.82694209 1509.71818628 367.18522024 1510.20584106 368.5435791 C1511.23427779 371.40583892 1512.26515951 374.26720251 1513.29785156 377.12792969 C1514.58696881 380.69936794 1515.87088812 384.27264501 1517.15304184 387.84658813 C1523.89896785 406.64330335 1530.84672813 425.35443319 1538 444 C1542.27314602 442.62975539 1545.84655946 441.0792582 1549.67578125 438.7265625 C1550.7428833 438.07252441 1551.80998535 437.41848633 1552.90942383 436.74462891 C1554.0441871 436.03873586 1555.17853765 435.33217895 1556.3125 434.625 C1556.89003021 434.26718445 1557.46756042 433.9093689 1558.06259155 433.54071045 C1567.97639503 427.39381962 1577.63931578 420.96426817 1587 414 C1587.57991699 413.57025879 1588.15983398 413.14051758 1588.75732422 412.69775391 C1619.02117407 390.21238895 1619.02117407 390.21238895 1639 359 C1639.21688411 355.60214888 1638.63477738 353.84695923 1636.59765625 351.12890625 C1586.40938722 296.69638614 1460.4601868 298.17067115 1393.09375 294.48046875 C1392.20215179 294.43074921 1391.31055359 294.38102966 1390.39193726 294.32980347 C1384.91999544 294.04366881 1379.47946374 293.95747261 1374 294 Z M1443 445 C1437.23730967 462.55674949 1431.97273402 480.2056869 1427 498 C1433.51470776 495.94661139 1439.78730029 493.50465317 1446.0625 490.8125 C1447.3609082 490.26045898 1447.3609082 490.26045898 1448.68554688 489.69726562 C1450.79170883 488.80127408 1452.89647192 487.90215345 1455 487 C1454.42190999 481.3573989 1453.3626424 476.20059035 1451.71484375 470.78125 C1451.49429825 470.03790405 1451.27375275 469.29455811 1451.04652405 468.52868652 C1450.34940857 466.1839853 1449.64362288 463.84200237 1448.9375 461.5 C1448.45970772 459.89861006 1447.98248879 458.29704894 1447.50585938 456.6953125 C1446.34385275 452.79486636 1445.17406973 448.89683118 1444 445 C1443.67 445 1443.34 445 1443 445 Z M207.015625 494.84375 C205.42512329 495.46382935 205.42512329 495.46382935 203.80249023 496.09643555 C202.63016846 496.55961182 201.45784668 497.02278809 200.25 497.5 C199.33747971 497.85996567 199.33747971 497.85996567 198.40652466 498.22720337 C168.8624126 509.90141308 139.79675788 522.5956345 111 536 C113.24657714 543.41370455 116.16698805 548.91060758 121 555 C121.75216797 555.96099609 121.75216797 555.96099609 122.51953125 556.94140625 C131.92301171 567.58281326 146.71135947 571.12828941 160.2734375 572.27734375 C175.8115108 572.75691391 190.64717988 569.30690441 202.8125 559.3125 C216.4002164 546.38940016 221.03592401 527.74645881 221.625 509.5625 C221.52084306 502.95504392 220.14691835 499.28137497 215.7265625 494.40625 C212.65983965 491.90846668 210.42467619 493.51449448 207.015625 494.84375 Z M15.4375 589.1875 C14.77709717 589.6316626 14.11669434 590.0758252 13.4362793 590.53344727 C1.82832448 598.43838429 -9.23735688 606.93800985 -19.4375 616.59765625 C-21.58506548 618.61099889 -23.7758803 620.46384174 -26.0625 622.3125 C-35.2599862 630.36030042 -44.45188862 642.20216464 -48 654 C-46.68926162 660.85812148 -42.41633511 664.03912393 -37 668 C8.66195063 698.05680664 69.83227342 705.01752302 123 711 C123.80963196 711.09110046 124.61926392 711.18220093 125.45343018 711.27606201 C215.7871605 721.32556929 307.35180847 720.32227287 398 716 C394.50146084 711.83633113 390.943215 707.82476026 387.06640625 704.00390625 C385.7215918 702.67069336 385.7215918 702.67069336 384.34960938 701.31054688 C382.49547008 699.48239411 380.64130353 697.654269 378.78710938 695.82617188 C374.18110377 691.25984471 369.69489851 686.67114488 365.50170898 681.72045898 C363.90849126 679.89516143 362.22981969 678.19566853 360.5 676.5 C357.52942594 673.57532885 354.79270881 670.51380439 352.07421875 667.35546875 C349.98557243 664.98361615 347.84451895 662.67094525 345.68774414 660.36132812 C340.64245955 654.95741137 335.84212794 649.44777668 331.2109375 643.6796875 C328.8906505 640.86746685 326.46928866 638.18202737 324 635.5 C319.97010261 631.1167116 316.17270859 626.60148127 312.4296875 621.97265625 C309.57955955 618.4856026 306.67536099 615.04899187 303.75 611.625 C303.2545166 611.04194092 302.7590332 610.45888184 302.24853516 609.8581543 C299.29929852 606.41638621 296.24640865 603.1634712 293 600 C292.47792969 600.61746094 291.95585938 601.23492188 291.41796875 601.87109375 C270.72035459 625.68603683 242.68909079 638.69120495 212.3125 645.25 C211.61398926 645.40114258 210.91547852 645.55228516 210.19580078 645.70800781 C194.93910754 648.78504633 179.95156297 649.36993152 164.4375 649.3125 C163.41875793 649.31067719 162.40001587 649.30885437 161.35040283 649.30697632 C146.71914755 649.26283958 132.37041679 649.03183248 118 646 C117.1445459 645.82307617 116.2890918 645.64615234 115.40771484 645.46386719 C87.40883149 639.48071404 62.81031133 627.83011551 42 608 C41.11828125 607.23042969 41.11828125 607.23042969 40.21875 606.4453125 C35.10952048 601.79398563 31.48911054 596.08376741 27.73071289 590.33374023 C27.27688232 589.64739502 26.82305176 588.9610498 26.35546875 588.25390625 C25.94965576 587.62814697 25.54384277 587.0023877 25.12573242 586.35766602 C24.75424072 585.90963623 24.38274902 585.46160645 24 585 C20.63994326 585 18.14714935 587.35978924 15.4375 589.1875 Z " fill="#C2B0E0" transform="translate(232,19)"/>
<path d="M0 0 C0.92297882 -0.00367584 1.84595764 -0.00735168 2.79690552 -0.01113892 C14.41489697 -0.03526378 25.63495078 0.551069 37.125 2.3125 C38.09179688 2.447771 39.05859375 2.58304199 40.0546875 2.72241211 C75.36761717 7.80028061 110.69830411 23.6765914 133.125 52.3125 C149.12837887 73.81082163 158.78332568 98.73693899 161.8125 125.375 C161.93915039 126.48480225 162.06580078 127.59460449 162.19628906 128.73803711 C163.5004798 141.26758382 163.45831936 153.73386075 163.125 166.3125 C163.10953125 167.14104492 163.0940625 167.96958984 163.078125 168.82324219 C162.60167005 191.82211981 156.72877098 215.88016844 146.125 236.3125 C145.64160156 237.26382813 145.15820312 238.21515625 144.66015625 239.1953125 C141.29541602 245.60349151 137.46277127 251.52283009 133.125 257.3125 C132.48046875 258.18648437 131.8359375 259.06046875 131.171875 259.9609375 C107.51974145 290.53351013 69.17270231 303.61445612 32.16687012 308.57498169 C26.43089504 309.27877312 20.76770284 309.48699535 14.9921875 309.515625 C14.04561279 309.52263931 13.09903809 309.52965363 12.1237793 309.53688049 C9.08247076 309.5543079 6.04135664 309.56073327 3 309.5625 C1.96377502 309.56317474 0.92755005 309.56384949 -0.14007568 309.56454468 C-14.91216498 309.5492242 -29.36432202 309.37392441 -43.875 306.3125 C-44.7304541 306.13557617 -45.5859082 305.95865234 -46.46728516 305.77636719 C-74.45246001 299.79614344 -99.08600894 288.15155474 -119.875 268.3125 C-120.53628906 267.72597656 -121.19757813 267.13945313 -121.87890625 266.53515625 C-134.35756922 255.01445125 -141.54544844 239.77372993 -147.875 224.3125 C-148.29394531 223.33023438 -148.71289062 222.34796875 -149.14453125 221.3359375 C-155.6254076 205.06919607 -157.84843398 187.65621619 -158.875 170.3125 C-158.94203125 169.3117041 -159.0090625 168.3109082 -159.078125 167.27978516 C-161.72416525 126.84498253 -155.56551529 81.82987226 -128.10546875 50.01953125 C-125.44108212 47.03808627 -122.66759268 44.17372783 -119.875 41.3125 C-119.29363281 40.66925781 -118.71226562 40.02601563 -118.11328125 39.36328125 C-99.2030828 18.92883507 -70.37852399 8.80398892 -43.875 3.3125 C-43.10607422 3.14733887 -42.33714844 2.98217773 -41.54492188 2.81201172 C-27.81524183 0.00630576 -13.95357355 0.02679252 0 0 Z M45.140625 154.15625 C43.55012329 154.77632935 43.55012329 154.77632935 41.92749023 155.40893555 C40.75516846 155.87211182 39.58284668 156.33528809 38.375 156.8125 C37.46247971 157.17246567 37.46247971 157.17246567 36.53152466 157.53970337 C6.9874126 169.21391308 -22.07824212 181.9081345 -50.875 195.3125 C-48.62842286 202.72620455 -45.70801195 208.22310758 -40.875 214.3125 C-40.12283203 215.27349609 -40.12283203 215.27349609 -39.35546875 216.25390625 C-29.95198829 226.89531326 -15.16364053 230.44078941 -1.6015625 231.58984375 C13.9365108 232.06941391 28.77217988 228.61940441 40.9375 218.625 C54.5252164 205.70190016 59.16092401 187.05895881 59.75 168.875 C59.64584306 162.26754392 58.27191835 158.59387497 53.8515625 153.71875 C50.78483965 151.22096668 48.54967619 152.82699448 45.140625 154.15625 Z " fill="#B267CF" transform="translate(393.875,359.6875)"/>
<path d="M0 0 C0.8545021 0.00092179 1.70900419 0.00184359 2.58940029 0.00279331 C3.56681683 0.00141865 4.54423336 0.00004398 5.55126858 -0.00137234 C6.63235897 0.00222294 7.71344936 0.00581821 8.82730007 0.00952244 C10.52464039 0.0093034 10.52464039 0.0093034 12.25627041 0.00907993 C16.01686389 0.00977964 19.77740855 0.01757472 23.53799343 0.02539158 C26.13731261 0.02725555 28.73663215 0.02867955 31.33595181 0.0296793 C37.49122295 0.03311442 43.64647378 0.04100527 49.80173725 0.05102879 C56.80767064 0.06219089 63.81360485 0.06770062 70.81954491 0.07272422 C85.23481851 0.08318791 99.65007722 0.10078675 114.06533718 0.12304783 C114.3266112 0.84587043 114.58788523 1.56869303 114.85707664 2.31341934 C117.80122957 10.45839213 120.74565253 18.60326726 123.69033718 26.74804783 C124.15246042 28.02627604 124.15246042 28.02627604 124.62391949 29.33032703 C131.97851976 49.67327978 131.97851976 49.67327978 139.43643093 69.97851658 C139.75885769 70.84980198 140.08128445 71.72108738 140.41348171 72.61877537 C141.86995858 76.55092262 143.33145942 80.48111024 144.80020046 84.40869236 C147.43729079 91.48894299 149.85490691 98.58718813 152.02554226 105.82690525 C153.82616414 111.53486393 155.95502454 117.12111456 158.06600857 122.71975803 C159.49944935 126.52180856 160.92042668 130.32852041 162.34268093 134.13476658 C162.6424081 134.93603474 162.94213528 135.73730289 163.25094509 136.56285191 C165.52952741 142.66310947 167.77537363 148.77490715 170.00674343 154.89257908 C170.49969654 156.24381367 170.49969654 156.24381367 171.0026083 157.62234592 C172.29282139 161.16091308 173.58223932 164.69976289 174.86822414 168.23986912 C177.92970341 176.66673729 181.02205628 185.07363675 184.30752468 193.41601658 C189.30118036 206.12472255 193.90116304 218.98299781 198.56674099 231.81475925 C200.04333901 235.87471157 201.52234984 239.93378538 203.00137997 243.99285221 C204.22192275 247.34266538 205.4416578 250.69276709 206.65945339 254.04358006 C209.1684379 260.94339935 211.69580998 267.83585669 214.25088406 274.71875095 C215.01967652 276.79507048 215.78814684 278.87150897 216.55654049 280.94797611 C217.04822695 282.27330203 217.54167463 283.59797599 218.03696346 284.92195988 C218.71962034 286.74684373 219.39605285 288.57405239 220.07217312 290.40136814 C220.4582272 291.43723057 220.84428127 292.47309299 221.24203396 293.54034519 C222.06533718 296.12304783 222.06533718 296.12304783 222.06533718 299.12304783 C186.42533718 299.12304783 150.78533718 299.12304783 114.06533718 299.12304783 C111.42765355 292.0892248 109.14260444 285.05288474 106.99380398 277.86694431 C106.37361603 275.79645559 105.74605949 273.72829172 105.11807156 271.6601572 C104.72114164 270.33932747 104.32464157 269.01836847 103.92861843 267.69726658 C103.57066189 266.50705906 103.21270535 265.31685154 102.84390163 264.09057713 C102.06533718 261.12304783 102.06533718 261.12304783 102.06533718 258.12304783 C92.3363076 258.09131317 82.60823277 258.09808379 72.8792963 258.15151405 C68.35969922 258.17517871 63.8408324 258.1864985 59.32119656 258.16772556 C54.94402664 258.15002999 50.56815574 258.1672151 46.19114208 258.20672512 C44.53697213 258.21588572 42.88268623 258.21331889 41.22856426 258.19774151 C29.88189629 258.10143344 21.0450415 260.03191521 10.64184475 264.62352085 C7.06533718 266.12304783 7.06533718 266.12304783 4.06533718 266.12304783 C3.40533718 269.09304783 2.74533718 272.06304783 2.06533718 275.12304783 C-0.24466282 283.04304783 -2.55466282 290.96304783 -4.93466282 299.12304783 C-39.58466282 299.12304783 -74.23466282 299.12304783 -109.93466282 299.12304783 C-109.20186515 294.72626183 -108.4761888 291.48157299 -106.95810032 287.41601658 C-106.54221653 286.29275974 -106.12633274 285.16950291 -105.69784641 284.01220798 C-105.01069553 282.17988621 -105.01069553 282.17988621 -104.30966282 280.31054783 C-103.8241925 279.00396983 -103.33934676 277.69715963 -102.85507298 276.39013767 C-102.07134288 274.27511289 -101.28718833 272.16025464 -100.50116062 270.0460825 C-98.37585285 264.32761951 -96.27562052 258.60024613 -94.18466282 252.86914158 C-93.70766186 251.56193401 -93.70766186 251.56193401 -93.22102451 250.22831821 C-92.5745634 248.4564412 -91.92815548 246.68454478 -91.28180027 244.91262913 C-81.63892667 218.48198331 -81.63892667 218.48198331 -76.72323704 205.71337986 C-75.06436126 201.3566081 -73.57744367 197.00009405 -72.25497532 192.52929783 C-68.96246767 181.65632869 -64.89926488 171.03814728 -60.99716282 160.37304783 C-60.1078116 157.93472233 -59.21865534 155.49632571 -58.32968235 153.05786228 C-51.59690887 134.60530077 -44.7997501 116.17655016 -37.99490452 97.75045872 C-30.53671175 77.55001626 -23.19818943 57.30839356 -15.93112278 37.03846836 C-14.60696257 33.3456595 -13.28134159 29.65337762 -11.95462132 25.96148777 C-11.24289737 23.98083299 -10.53171784 21.99998252 -9.82095432 20.01898289 C-8.71208269 16.93150021 -7.5992662 13.8454663 -6.48544407 10.75976658 C-5.97294353 9.33009304 -5.97294353 9.33009304 -5.45008945 7.87153721 C-4.97706142 6.56457134 -4.97706142 6.56457134 -4.49447727 5.23120213 C-4.2166692 4.45995502 -3.93886112 3.68870792 -3.65263462 2.8940897 C-2.5450046 0.1618666 -2.5450046 0.1618666 0 0 Z M54.06533718 99.12304783 C48.30264685 116.67979731 43.0380712 134.32873473 38.06533718 152.12304783 C44.58004495 150.06965921 50.85263747 147.627701 57.12783718 144.93554783 C58.42624538 144.38350681 58.42624538 144.38350681 59.75088406 143.82031345 C61.85704601 142.92432191 63.9618091 142.02520128 66.06533718 141.12304783 C65.48724717 135.48044673 64.42797958 130.32363818 62.78018093 124.90429783 C62.55963543 124.16095188 62.33908993 123.41760593 62.11186123 122.65173435 C61.41474575 120.30703313 60.70896006 117.9650502 60.00283718 115.62304783 C59.5250449 114.02165789 59.04782597 112.42009676 58.57119656 110.81836033 C57.40918993 106.91791419 56.23940691 103.01987901 55.06533718 99.12304783 C54.73533718 99.12304783 54.40533718 99.12304783 54.06533718 99.12304783 Z " fill="#B267CF" transform="translate(1620.9346628189087,364.8769521713257)"/>
<path d="M0 0 C35.97 0 71.94 0 109 0 C124 49 124 49 131 73 C132.74984819 78.85663477 134.50129478 84.71237628 136.26611328 90.56445312 C137.51478704 94.70842166 138.75702223 98.85432017 140 103 C140.49997015 104.66667562 140.99997012 106.3333423 141.5 108 C147.53515625 128.1171875 153.5703125 148.234375 159.60546875 168.3515625 C159.83153809 169.1034082 160.05760742 169.85525391 160.29052734 170.62988281 C160.7998124 172.33123839 161.30484902 174.03386788 161.80712891 175.73730469 C162.07315918 176.63610352 162.33918945 177.53490234 162.61328125 178.4609375 C162.85473877 179.28126465 163.09619629 180.1015918 163.3449707 180.94677734 C163.95263175 183.0337731 163.95263175 183.0337731 165 185 C165.25198654 184.15856445 165.50397308 183.31712891 165.76359558 182.45019531 C168.15982292 174.44931111 170.55697498 166.44870465 172.95511913 158.44839478 C174.18745276 154.3371639 175.41945126 150.22583327 176.65063477 146.11425781 C177.84285545 142.13284777 179.03602051 138.15172179 180.22979164 134.17077637 C180.68093574 132.66574816 181.13176168 131.16062453 181.58223534 129.65539551 C184.28510653 120.62483318 187.04025571 111.61321512 189.8690033 102.62123108 C191.75713621 96.57579738 193.56462365 90.50663288 195.375 84.4375 C196.16336963 81.80057369 196.95263963 79.16391749 197.7421875 76.52734375 C197.93605042 75.87982147 198.12991333 75.23229919 198.32965088 74.56515503 C200.3078856 67.96289367 202.317946 61.37049761 204.33105469 54.77880859 C205.98738421 49.34761071 207.6292449 43.91224125 209.2578125 38.47265625 C209.45377014 37.81828583 209.64972778 37.16391541 209.85162354 36.48971558 C210.8081835 33.29437008 211.76337004 30.09862621 212.71679688 26.90234375 C215.40573451 17.90983101 218.19979633 8.96065173 221 0 C255.32 0 289.64 0 325 0 C324.33835194 3.3082403 323.71071716 6.09945534 322.62744141 9.22460938 C322.34772995 10.03630081 322.06801849 10.84799225 321.77983093 11.6842804 C321.32033806 13.00071785 321.32033806 13.00071785 320.8515625 14.34375 C320.52754959 15.27950363 320.20353668 16.21525726 319.8697052 17.17936707 C318.79184917 20.28754806 317.70866614 23.39384031 316.625 26.5 C316.25029572 27.57754547 315.87559143 28.65509094 315.48953247 29.76528931 C309.18397074 47.89712569 302.73367776 65.97531432 296.23156738 84.03744507 C290.69056474 99.43237203 285.22886547 114.85149109 279.875 130.3125 C274.19163703 146.72394334 268.44056533 163.10962768 262.63085938 179.47677612 C257.2562999 194.61824268 251.91087503 209.76965321 246.58578491 224.92858887 C240.21971198 243.04915216 233.82952864 261.16073616 227.375 279.25 C227.05263367 280.15466003 226.73026733 281.05932007 226.39813232 281.99139404 C225.50385291 284.4999927 224.60777024 287.00793821 223.7109375 289.515625 C223.44837158 290.25239471 223.18580566 290.98916443 222.9152832 291.7482605 C221.1154684 296.76906321 221.1154684 296.76906321 220 299 C182.38 299 144.76 299 106 299 C91.25328445 258.16294156 91.25328445 258.16294156 84.33047485 238.32809448 C82.20030079 232.2261901 80.06332074 226.12667122 77.92578125 220.02734375 C77.50268173 218.82004105 77.07958221 217.61273834 76.6436615 216.36885071 C72.31333832 204.02383487 67.91547369 191.70343549 63.50341797 179.38745117 C58.88684085 166.49874159 54.31257833 153.59541557 49.75 140.6875 C44.07339135 124.62815576 38.34780543 108.58710527 32.58642578 92.5579834 C25.04486356 71.57550915 17.60797836 50.55996312 10.296875 29.49609375 C6.8813428 19.6582279 3.44023869 9.8292534 0 0 Z " fill="#B267CF" transform="translate(1020,365)"/>
<path d="M0 0 C33.66 0 67.32 0 102 0 C102 71.28 102 142.56 102 216 C151.17 216 200.34 216 251 216 C251 243.39 251 270.78 251 299 C168.17 299 85.34 299 0 299 C0 200.33 0 101.66 0 0 Z " fill="#B267CF" transform="translate(599,365)"/>
<path d="M0 0 C2.45276881 3.67915322 3.33689198 7.4170223 4.44262695 11.63964844 C4.67872681 12.52307419 4.91482666 13.40649994 5.15808105 14.31669617 C5.67071359 16.2377808 6.18075702 18.15955776 6.68853188 20.08193207 C7.49566514 23.13732662 8.30959301 26.19083887 9.12528992 29.24395752 C10.86058884 35.74432157 12.58688021 42.24706099 14.3125 48.75 C16.30305242 56.24823062 18.29737396 63.74543182 20.29894066 71.24073029 C21.09426881 74.22552308 21.88388647 77.21178578 22.673172 80.19818115 C28.04286927 100.39924193 33.60442139 119.45108263 47 136 C47.72703125 136.90363281 48.4540625 137.80726563 49.203125 138.73828125 C62.55671163 154.36905236 79.78891017 163.56455419 99.33203125 169.12890625 C100.35109558 169.42255569 101.37015991 169.71620514 102.42010498 170.01875305 C119.39156124 174.87056441 136.4593642 179.3859022 153.50585938 183.96508789 C157.38580205 185.00760291 161.2647881 186.05361934 165.14325714 187.10160255 C167.28925848 187.68031056 169.43631295 188.25498058 171.58343506 188.82951355 C179.48518689 190.95746818 187.2720488 193.30451363 195 196 C191.74382797 198.17078135 188.58107766 199.21292698 184.88232422 200.33422852 C184.17413984 200.55189408 183.46595547 200.76955965 182.73631096 200.99382114 C175.58428349 203.16836077 168.37843923 205.13153716 161.15399551 207.04917717 C158.80286496 207.67357572 156.45304789 208.30272774 154.10348511 208.93299866 C147.43577154 210.72078116 140.76595478 212.50064551 134.09521484 214.27709961 C129.97762841 215.37398207 125.86154357 216.47636499 121.74624252 217.58178902 C120.20425814 217.99481606 118.66173109 218.405824 117.11859512 218.81452751 C108.81115779 221.01495366 100.57961878 223.37465974 92.41357422 226.05688477 C91.68917208 226.29202506 90.96476994 226.52716536 90.21841621 226.76943111 C78.46529052 230.71100192 68.33220702 236.84887444 59 245 C58.32839844 245.52851563 57.65679687 246.05703125 56.96484375 246.6015625 C48.02143987 253.82029406 41.61093436 263.35561014 36.1875 273.375 C35.83888916 274.00905762 35.49027832 274.64311523 35.13110352 275.29638672 C28.44226576 288.19003303 25.27169334 302.96229874 21.5859375 316.92578125 C21.08505924 318.80864855 20.58371748 320.69139261 20.0819397 322.57402039 C18.77381102 327.48609077 17.47098074 332.39954922 16.1696167 337.31341553 C14.08191117 345.19294442 11.98616477 353.0703376 9.89012527 360.94765282 C9.16448757 363.67789224 8.44122782 366.40875261 7.71835327 369.13972473 C5.59835157 377.13283842 3.45178395 385.10054111 1 393 C0.34 392.67 -0.32 392.34 -1 392 C-1.90673199 389.21504605 -2.69277948 386.46660881 -3.42675781 383.63500977 C-3.66125137 382.75669495 -3.89574493 381.87838013 -4.13734436 380.97344971 C-4.64782593 379.05699837 -5.15452941 377.13953772 -5.65796661 375.22122383 C-6.45906138 372.16878668 -7.26975318 369.1190435 -8.08294678 366.06980896 C-9.52089893 360.67139246 -10.9501444 355.27071445 -12.37664795 349.8692627 C-14.64397548 341.28450686 -16.91867777 332.70174475 -19.20406342 324.12177849 C-19.99427067 321.14680115 -20.77734385 318.17001235 -21.55987549 315.19300842 C-27.17571176 292.96971576 -27.17571176 292.96971576 -36.3125 272.0625 C-36.69148437 271.36705078 -37.07046875 270.67160156 -37.4609375 269.95507812 C-40.96740164 263.71172037 -45.13480198 258.25645521 -50 253 C-50.69609375 252.22398437 -51.3921875 251.44796875 -52.109375 250.6484375 C-69.85068929 231.80638473 -94.00012305 224.68177304 -118.23828125 218.3125 C-119.85535785 217.88366405 -121.4723139 217.45437328 -123.0891571 217.0246582 C-127.30766585 215.90461908 -131.52759465 214.79003344 -135.7479248 213.67687988 C-141.66777014 212.11442844 -147.58565745 210.54457508 -153.50370789 208.9753418 C-156.63876624 208.14405173 -159.77436716 207.31486383 -162.91047668 206.48754883 C-166.52507337 205.53311577 -170.13748533 204.5707963 -173.74838638 203.60247803 C-175.3255536 203.18046575 -176.90334434 202.76078007 -178.48159409 202.34283447 C-180.98202903 201.67933012 -183.47984541 201.00667493 -185.97729492 200.33203125 C-186.75101346 200.12841476 -187.524732 199.92479828 -188.32189655 199.7150116 C-193.77183644 198.22816356 -193.77183644 198.22816356 -196 196 C-181.77600702 191.71140529 -167.47798417 187.7478214 -153.12109375 183.93359375 C-151.43013318 183.48349469 -149.73918479 183.03334988 -148.04824829 182.5831604 C-141.07996667 180.72923937 -134.11105206 178.87781257 -127.13842773 177.0402832 C-122.80971241 175.89913578 -118.48355634 174.74868661 -114.15883064 173.59251595 C-112.53935801 173.16140308 -110.91899754 172.73360829 -109.29766655 172.30953789 C-78.4814012 164.24500064 -53.49205646 150.16276927 -37 122 C-36.49597656 121.154375 -35.99195313 120.30875 -35.47265625 119.4375 C-32.13223772 113.3414577 -29.95228988 107.10228141 -27.953125 100.46875 C-27.65722473 99.4908551 -27.36132446 98.51296021 -27.05645752 97.50543213 C-22.49724415 82.20059802 -18.50254132 66.73254066 -14.42297363 51.29473877 C-13.29523358 47.03037581 -12.16314297 42.76716843 -11.03125 38.50390625 C-9.75589429 33.70008025 -8.48083514 28.89618064 -7.20965576 24.09124756 C-6.47241538 21.3046146 -5.73354555 18.51842584 -4.99255371 15.73278809 C-4.35677353 13.34175105 -3.72378205 10.94996969 -3.09436035 8.55725098 C-2.82764526 7.55512573 -2.56093018 6.55300049 -2.28613281 5.52050781 C-2.05919739 4.6616095 -1.83226196 3.80271118 -1.59844971 2.91778564 C-1 1 -1 1 0 0 Z " fill="#B267CF" transform="translate(232,19)"/>
<path d="M0 0 C33.66 0 67.32 0 102 0 C102 98.67 102 197.34 102 299 C68.34 299 34.68 299 0 299 C0 200.33 0 101.66 0 0 Z " fill="#B267CF" transform="translate(1379,365)"/>
<path d="M0 0 C33.33 0 66.66 0 101 0 C101 98.67 101 197.34 101 299 C67.67 299 34.34 299 0 299 C0 200.33 0 101.66 0 0 Z " fill="#B267CF" transform="translate(886,365)"/>
<path d="M0 0 C2.56971912 2.56971912 2.86841486 4.58320149 3.80004883 8.09521484 C3.96787369 8.71996704 4.13569855 9.34471924 4.30860901 9.98840332 C4.67277655 11.3473421 5.03383231 12.70711768 5.39216042 14.06760788 C5.96258205 16.23199928 6.54170602 18.39389124 7.12321472 20.55532837 C8.56835852 25.93344132 10.00008157 31.31510233 11.42913818 36.69750977 C12.63329033 41.23217054 13.8441581 45.76492893 15.06421471 50.29533768 C15.62950928 52.40487916 16.18511735 54.51681157 16.74043274 56.6289978 C20.0432033 69.01244562 24.0793499 79.83602852 32 90 C32.74830078 91.03060547 32.74830078 91.03060547 33.51171875 92.08203125 C45.07528302 106.84960577 64.43052877 111.81018222 81.70703125 116.42578125 C83.16834969 116.82160104 84.62950298 117.21803103 86.09049988 117.61503601 C89.88796283 118.64522296 93.68757224 119.66725175 97.48773193 120.68743896 C101.3844611 121.73515362 105.27904348 122.79078754 109.17382812 123.84570312 C116.78050454 125.90477337 124.38947334 127.95520672 132 130 C131 132 131 132 128.41691589 132.89021301 C127.26508316 133.19045883 126.11325043 133.49070465 124.92651367 133.80004883 C124.29215393 133.96787369 123.65779419 134.13569855 123.00421143 134.30860901 C121.62138599 134.67336106 120.23757219 135.03438134 118.85292625 135.39216042 C116.65054643 135.96153539 114.45104604 136.54099535 112.25202942 137.12321472 C106.77913462 138.57002495 101.3018336 139.99985182 95.82434082 141.42913818 C91.21273593 142.63303576 86.60310432 143.84402323 81.99578285 145.06421471 C79.84863071 145.62986748 77.69902182 146.18534708 75.54911804 146.74043274 C54.97897282 152.13081938 36.80410711 160.91576905 25.633255 179.88995361 C20.70280135 189.27853012 18.05305154 199.8764632 15.38414955 210.08643341 C14.84720252 212.13960672 14.30235216 214.19055088 13.75566101 216.2411499 C12.40407798 221.31662609 11.06465877 226.39529035 9.72644043 231.4743042 C8.58448398 235.807161 7.43716227 240.13852122 6.28215599 244.4679184 C5.74607714 246.48627323 5.21806173 248.50662778 4.69026184 250.52716064 C4.36619858 251.74312927 4.04213531 252.9590979 3.70825195 254.21191406 C3.42577103 255.2844342 3.1432901 256.35695435 2.85224915 257.4619751 C2 260 2 260 0 262 C-3.47948863 250.38536892 -6.82015616 238.74182107 -9.9609375 227.03125 C-10.22040161 226.06689026 -10.47986572 225.10253052 -10.74719238 224.10894775 C-12.05737482 219.2376713 -13.35898016 214.36436588 -14.64746094 209.48730469 C-20.46531557 187.68199788 -27.91725692 169.34261878 -47.73828125 156.703125 C-56.90676081 151.91575124 -66.45810819 148.82081358 -76.43056107 146.19895363 C-78.5933294 145.63026198 -80.75309336 145.05117204 -82.91244507 144.46965027 C-87.48086088 143.24138871 -92.05276478 142.02645176 -96.625 140.8125 C-101.96312059 139.39366617 -107.29969516 137.96933286 -112.63349533 136.534338 C-114.76033731 135.96472447 -116.8892798 135.40351541 -119.01846313 134.84272766 C-120.31400594 134.49554893 -121.60945211 134.14800933 -122.90478516 133.80004883 C-124.602556 133.3496801 -124.602556 133.3496801 -126.33462524 132.89021301 C-129 132 -129 132 -131 130 C-129.73784668 129.66959717 -129.73784668 129.66959717 -128.45019531 129.33251953 C-120.44485506 127.23351888 -112.44429283 125.11731975 -104.44839478 122.98262024 C-100.33938171 121.88624379 -96.22893282 120.79614174 -92.11425781 119.72119141 C-88.12887263 118.67975543 -84.14850175 117.62078065 -80.17077637 116.55047607 C-78.66727364 116.14903837 -77.16217968 115.75350274 -75.65539551 115.36456299 C-54.90937745 109.99804648 -36.57015334 100.90519395 -25 82 C-20.31652013 73.23275414 -17.79919023 63.914094 -15.25 54.375 C-14.82192301 52.80135592 -14.39295309 51.22795451 -13.96313477 49.65478516 C-12.85457243 45.58951601 -11.75652186 41.52148874 -10.66119385 37.45263672 C-8.96288497 31.15291881 -7.24616031 24.85818577 -5.53186035 18.56280518 C-4.94531113 16.40375232 -4.36241249 14.24374171 -3.78027344 12.08349609 C-3.42516156 10.77180141 -3.07002002 9.46011475 -2.71484375 8.1484375 C-2.40667725 7.00552246 -2.09851074 5.86260742 -1.78100586 4.68505859 C-1 2 -1 2 0 0 Z " fill="#B267CF" transform="translate(1445,763)"/>
<path d="M0 0 C0.70253906 0.50789063 1.40507812 1.01578125 2.12890625 1.5390625 C2.73863281 1.94382812 3.34835937 2.34859375 3.9765625 2.765625 C14.26912991 10.40885274 20.58841568 24.41423978 22.66381836 36.70751953 C23.15008707 40.71355685 23.25593356 44.63356977 23.2265625 48.66015625 C23.22514755 49.40491714 23.2237326 50.14967804 23.22227478 50.91700745 C23.21672614 53.27023523 23.20418358 55.623364 23.19140625 57.9765625 C23.1863846 59.58268091 23.18182286 61.18880082 23.17773438 62.79492188 C23.1667736 66.70967293 23.14954509 70.62435099 23.12890625 74.5390625 C20.52282352 72.0228447 18.2350894 69.48771891 16.12890625 66.5390625 C7.72318445 68.81120936 -0.26924338 71.98346964 -8.30859375 75.2890625 C-8.99284424 75.56884949 -9.67709473 75.84863647 -10.38208008 76.13690186 C-33.06798334 85.41376464 -55.70423738 94.89174854 -77.85546875 105.39111328 C-78.7475 105.80989746 -79.63953125 106.22868164 -80.55859375 106.66015625 C-81.70908203 107.20820923 -81.70908203 107.20820923 -82.8828125 107.76733398 C-84.87109375 108.5390625 -84.87109375 108.5390625 -87.87109375 108.5390625 C-88.35487366 106.68609415 -88.83288011 104.83161809 -89.30859375 102.9765625 C-89.57542969 101.94402344 -89.84226562 100.91148437 -90.1171875 99.84765625 C-91.64759585 93.13130459 -92.04096727 86.64785588 -92.07421875 79.79296875 C-92.07991882 78.86419418 -92.0856189 77.93541962 -92.0914917 76.97850037 C-92.10090455 75.01603316 -92.10746084 73.05355042 -92.11132812 71.09106445 C-92.12096232 68.14179501 -92.1519918 65.19324482 -92.18359375 62.24414062 C-92.30174321 41.24937913 -89.72516621 21.40858192 -74.84375 5.3515625 C-55.95367834 -12.68452762 -21.58267749 -14.43586007 0 0 Z " fill="#C2B0E0" transform="translate(429.87109375,446.4609375)"/>
<path d="M0 0 C0.66 0 1.32 0 2 0 C2.26189621 0.97480316 2.26189621 0.97480316 2.52908325 1.96929932 C4.36370213 8.78780622 6.21634381 15.60123736 8.07910156 22.41210938 C8.77017553 24.94798303 9.4567835 27.48507845 10.13867188 30.0234375 C11.12472897 33.69087792 12.12724746 37.35349178 13.1328125 41.015625 C13.57852097 42.69449799 13.57852097 42.69449799 14.03323364 44.4072876 C18.43739564 60.27292066 25.48963118 72.67048673 40 81 C51.74641338 86.04033141 64.36583616 88.92668011 76.6875 92.1875 C80.65146516 93.23714809 84.61337485 94.29411166 88.57421875 95.35546875 C89.47726242 95.59194626 90.38030609 95.82842377 91.31071472 96.07206726 C92.56396294 96.40800652 92.56396294 96.40800652 93.8425293 96.75073242 C94.57529587 96.94438889 95.30806244 97.13804535 96.06303406 97.33757019 C98 98 98 98 101 100 C95.04816834 102.34304046 89.09344187 104.15380805 82.91015625 105.77734375 C80.9719562 106.29604088 79.0338067 106.8149269 77.09570312 107.33398438 C74.07730485 108.13746762 71.05832014 108.93860376 68.03833008 109.73608398 C65.09800883 110.51421412 62.16025593 111.301511 59.22265625 112.08984375 C58.33175797 112.3222728 57.44085968 112.55470184 56.52296448 112.79417419 C42.6312491 116.53798907 30.43802828 122.97426991 22 135 C17.03339531 143.95704947 14.6222153 153.74250857 12 163.5625 C11.58419723 165.09463575 11.16753403 166.62653826 10.75 168.15820312 C9.91904985 171.21000119 9.09271802 174.26299388 8.26953125 177.31689453 C6.22325681 184.88991549 4.10865784 192.44416302 2 200 C0 199 0 199 -0.74508667 197.01087952 C-0.97728912 196.13725266 -1.20949158 195.26362579 -1.44873047 194.36352539 C-1.71595917 193.37481949 -1.98318787 192.38611359 -2.2585144 191.3674469 C-2.54187653 190.28841599 -2.82523865 189.20938507 -3.1171875 188.09765625 C-3.41561554 186.99078964 -3.71404358 185.88392303 -4.02151489 184.74351501 C-4.98028856 181.18516832 -5.92858713 177.6241527 -6.875 174.0625 C-7.81490209 170.53316525 -8.75725343 167.00457248 -9.70706177 163.47789001 C-10.29851662 161.28120927 -10.88434709 159.08300369 -11.46359253 156.8830719 C-15.68226055 141.19683684 -22.10199182 127.98625495 -36.65510559 119.440979 C-43.79303322 115.81274006 -50.75791531 113.36683394 -58.51171875 111.421875 C-59.64656204 111.1243634 -60.78140533 110.82685181 -61.95063782 110.52032471 C-65.5264554 109.58426827 -69.10642907 108.6657341 -72.6875 107.75 C-76.30728903 106.81809227 -79.92592407 105.88231704 -83.54219055 104.93682861 C-85.78138583 104.35192593 -88.02271882 103.77513583 -90.26628113 103.20721436 C-91.76968803 102.81605438 -91.76968803 102.81605438 -93.3034668 102.41699219 C-94.18882614 102.19082214 -95.07418549 101.9646521 -95.9863739 101.73162842 C-98 101 -98 101 -99 99 C-98.02519684 98.73810379 -98.02519684 98.73810379 -97.03070068 98.47091675 C-90.21219378 96.63629787 -83.39876264 94.78365619 -76.58789062 92.92089844 C-74.05201697 92.22982447 -71.51492155 91.5432165 -68.9765625 90.86132812 C-65.30912208 89.87527103 -61.64650822 88.87275254 -57.984375 87.8671875 C-56.30550201 87.42147903 -56.30550201 87.42147903 -54.5927124 86.96676636 C-38.68091101 82.54978843 -26.32905267 75.56927818 -17.98356628 60.96659851 C-13.92486216 53.49121264 -11.90653336 45.50673056 -9.8125 37.3125 C-9.38930041 35.71730338 -8.96431972 34.12257827 -8.53759766 32.52832031 C-7.5177631 28.70210439 -6.51912354 24.8707954 -5.52850342 21.03692627 C-4.78350838 18.16561093 -4.01945646 15.29948792 -3.25390625 12.43359375 C-2.15018389 8.29380185 -1.06548716 4.14979209 0 0 Z " fill="#B267CF" transform="translate(1629,904)"/>
<path d="M0 0 C0.89794922 2.35400391 0.89794922 2.35400391 1.8046875 5.4765625 C2.13919922 6.61617432 2.47371094 7.75578613 2.81835938 8.92993164 C3.16705078 10.1493042 3.51574219 11.36867676 3.875 12.625 C4.23142578 13.8514624 4.58785156 15.0779248 4.95507812 16.34155273 C12 40.69772802 12 40.69772802 12 44 C-5.16 44 -22.32 44 -40 44 C-38.91411648 37.48469887 -37.34752598 31.28854528 -35.5625 24.9375 C-35.26923828 23.76638672 -34.97597656 22.59527344 -34.67382812 21.38867188 C-32.27973199 13.04503267 -32.27973199 13.04503267 -28.83544922 10.23242188 C-26.26707643 8.92788348 -23.72033878 7.94357978 -21 7 C-19.30762756 6.25313217 -17.61998653 5.49544163 -15.9375 4.7265625 C-14.29314406 4.02258073 -12.64731073 3.32203956 -11 2.625 C-10.15566406 2.25761719 -9.31132813 1.89023437 -8.44140625 1.51171875 C-7.63574219 1.17011719 -6.83007812 0.82851563 -6 0.4765625 C-5.278125 0.16799316 -4.55625 -0.14057617 -3.8125 -0.45849609 C-2 -1 -2 -1 0 0 Z " fill="#C2AFE0" transform="translate(1689,506)"/>
<path d="M0 0 C1.18613892 0.00785522 1.18613892 0.00785522 2.39624023 0.01586914 C3.67724609 0.02070312 3.67724609 0.02070312 4.98413086 0.02563477 C5.88196289 0.03401367 6.77979492 0.04239258 7.70483398 0.05102539 C8.6065332 0.05553711 9.50823242 0.06004883 10.43725586 0.06469727 C12.67234712 0.07652315 14.90730835 0.09300319 17.14233398 0.11352539 C14.31911533 2.93674404 10.88255195 3.88647076 7.20483398 5.23852539 C6.47586914 5.51567383 5.7469043 5.79282227 4.99584961 6.07836914 C1.92339965 7.22173732 -0.55305975 8.11352539 -3.85766602 8.11352539 C-2.84718051 0.17399644 -2.84718051 0.17399644 0 0 Z " fill="#C2AFE0" transform="translate(1628.857666015625,622.886474609375)"/>
</svg>
